<svg xmlns="http://www.w3.org/2000/svg" xmlns:xlink="http://www.w3.org/1999/xlink" width="108" height="34.981" viewBox="0 0 108 34.981">
  <defs>
    <clipPath id="clip">
      <use xlink:href="#fill"/>
    </clipPath>
  </defs>
  <g id="Сгруппировать_3" data-name="Сгруппировать 3" transform="translate(-800 -1407.01)">
    <g id="Shape_32" data-name="Shape 32" fill="none">
      <path d="M800,1424.5l17.678-17.491.706.7-16.97,16.791,16.97,16.79-.706.7Z" stroke="none"/>
      <path d="M 817.677978515625 1407.009643554688 L 818.3843994140625 1407.708984375 L 801.4143676757813 1424.500244140625 L 818.3843994140625 1441.290649414063 L 817.677978515625 1441.990844726563 L 800.0001220703125 1424.500244140625 L 817.677978515625 1407.009643554688 Z" stroke="none" fill="#bb9c66"/>
    </g>
    <g id="Shape_32-2" data-name="Shape 32" fill="none">
      <path d="M807.707,1425.2h0l-.707-.7.707-.7h0l16.971-16.791.707.7L808.414,1424.5l16.971,16.79-.707.7Z" stroke="none"/>
      <path d="M 824.6781005859375 1441.990844726563 L 807.7069702148438 1425.199340820313 L 807.706787109375 1425.199584960938 L 807.000244140625 1424.500244140625 L 807.706787109375 1423.800903320313 L 807.7069702148438 1423.801025390625 L 824.6781005859375 1407.009643554688 L 825.3846435546875 1407.708984375 L 808.4136352539063 1424.500244140625 L 825.3846435546875 1441.290649414063 L 824.6781005859375 1441.990844726563 Z" stroke="none" fill="#bb9c66"/>
    </g>
    <g id="Shape_33" data-name="Shape 33" transform="translate(801 1423.51)" fill="none" stroke="#bb9c66" stroke-width="3">
      <rect id="fill" width="107" height="0.99" stroke="none"/>
      <path d="M0,-0.5099999904632568h107M105.5,0v0.9900000095367432M107,1.5h-107M1.5,0.9900000095367432v-0.9900000095367432" fill="none" clip-path="url(#clip)"/>
    </g>
  </g>
</svg>
