<svg xmlns="http://www.w3.org/2000/svg" width="100" height="21.988" viewBox="0 0 100 21.988">
  <g id="Rectangle_25" data-name="Rectangle 25" transform="translate(-600 -1764.006)" fill="none">
    <path d="M639.006,1775,650,1764.006,660.994,1775,650,1785.994ZM675,1775v-1h25v1Zm-75,0v-1h25v1Z" stroke="none"/>
    <path d="M 649.9998779296875 1765.420532226563 L 640.4204711914063 1774.999877929688 L 649.9998168945313 1784.579956054688 L 659.5799560546875 1774.999877929688 L 649.9998779296875 1765.420532226563 M 649.9998168945313 1764.00634765625 L 660.9942016601563 1774.999877929688 L 649.9998168945313 1785.994262695313 L 639.0062866210938 1774.999877929688 L 649.9998168945313 1764.00634765625 Z M 600.0003051757813 1774 L 624.9996337890625 1774 L 624.9996337890625 1774.999877929688 L 600.0003051757813 1774.999877929688 L 600.0003051757813 1774 Z M 675 1774 L 700.000244140625 1774 L 700.000244140625 1774.999877929688 L 675 1774.999877929688 L 675 1774 Z" stroke="none" fill="#bb9c66"/>
  </g>
</svg>
