<svg xmlns="http://www.w3.org/2000/svg" width="17" height="25" viewBox="0 0 17 25">
  <g id="Сгруппировать_5" data-name="Сгруппировать 5" transform="translate(-525 -4325)">
    <g id="Rectangle_30" data-name="Rectangle 30" transform="translate(525 4325)" fill="none" stroke="#bb9c66" stroke-width="1">
      <rect width="17" height="25" stroke="none"/>
      <rect x="0.5" y="0.5" width="16" height="24" fill="none"/>
    </g>
    <g id="Rectangle_31" data-name="Rectangle 31" fill="none">
      <path d="M534,4348v-1h6v1Zm-7,0v-1h6v1Zm7-2v-1h6v1Zm-7,0v-1h6v1Zm0-2v-1h13v1Zm7-2v-7h6v7Zm-7,0v-1h6v1Zm0-2v-1h6v1Zm0-2v-1h6v1Zm0-2v-1h6v1Zm0-2v-2h13v2Zm0-3v-4h13v4Z" stroke="none"/>
      <path d="M 538.9999389648438 4340.99951171875 L 538.9999389648438 4336.00048828125 L 535.0005493164063 4336.00048828125 L 535.0005493164063 4340.99951171875 L 538.9999389648438 4340.99951171875 M 538.9999389648438 4333 L 538.9999389648438 4332.99951171875 L 528.0004272460938 4332.99951171875 L 528.0004272460938 4333 L 538.9999389648438 4333 M 538.9999389648438 4330 L 538.9999389648438 4328 L 528.0004272460938 4328 L 528.0004272460938 4330 L 538.9999389648438 4330 M 539.9999389648438 4348 L 534.0005493164063 4348 L 534.0005493164063 4347.00048828125 L 539.9999389648438 4347.00048828125 L 539.9999389648438 4348 Z M 532.9998779296875 4348 L 527.0004272460938 4348 L 527.0004272460938 4347.00048828125 L 532.9998779296875 4347.00048828125 L 532.9998779296875 4348 Z M 539.9999389648438 4346 L 534.0005493164063 4346 L 534.0005493164063 4345.00048828125 L 539.9999389648438 4345.00048828125 L 539.9999389648438 4346 Z M 532.9998779296875 4346 L 527.0004272460938 4346 L 527.0004272460938 4345.00048828125 L 532.9998779296875 4345.00048828125 L 532.9998779296875 4346 Z M 539.9999389648438 4343.99951171875 L 527.0004272460938 4343.99951171875 L 527.0004272460938 4343 L 539.9999389648438 4343 L 539.9999389648438 4343.99951171875 Z M 539.9999389648438 4341.99951171875 L 534.0005493164063 4341.99951171875 L 534.0005493164063 4335.00048828125 L 539.9999389648438 4335.00048828125 L 539.9999389648438 4341.99951171875 Z M 532.9998779296875 4341.99951171875 L 527.0004272460938 4341.99951171875 L 527.0004272460938 4341 L 532.9998779296875 4341 L 532.9998779296875 4341.99951171875 Z M 532.9998779296875 4340.00048828125 L 527.0004272460938 4340.00048828125 L 527.0004272460938 4339 L 532.9998779296875 4339 L 532.9998779296875 4340.00048828125 Z M 532.9998779296875 4338 L 527.0004272460938 4338 L 527.0004272460938 4336.99951171875 L 532.9998779296875 4336.99951171875 L 532.9998779296875 4338 Z M 532.9998779296875 4336 L 527.0004272460938 4336 L 527.0004272460938 4335.00048828125 L 532.9998779296875 4335.00048828125 L 532.9998779296875 4336 Z M 539.9999389648438 4334 L 527.0004272460938 4334 L 527.0004272460938 4331.99951171875 L 539.9999389648438 4331.99951171875 L 539.9999389648438 4334 Z M 539.9999389648438 4331 L 527.0004272460938 4331 L 527.0004272460938 4327 L 539.9999389648438 4327 L 539.9999389648438 4331 Z" stroke="none" fill="#bb9c66"/>
    </g>
  </g>
</svg>
