<svg xmlns="http://www.w3.org/2000/svg" width="21.01" height="25.5" viewBox="0 0 21.01 25.5">
  <g id="Сгруппировать_6" data-name="Сгруппировать 6" transform="translate(-1025 -4324.5)">
    <path id="Shape_88" data-name="Shape 88" d="M1025,4350v-25h20v1h-19v6h13v1h-13v5h19v1h-19v11Z" fill="#bb9c66"/>
    <path id="Shape_91" data-name="Shape 91" d="M1025,4337v-1h19v1Zm0-2v-1h17v1Zm9-3,6-7v1l-6,7Zm-5,0,7-7v1l-7,7Zm-3-2,5-5v1l-5,5Z" fill="#bb9c66"/>
    <path id="Shape_89" data-name="Shape 89" d="M1046,4324.5Z" fill="#bb9c66"/>
    <path id="Shape_90" data-name="Shape 90" d="M1037.99,4332.336l.368-.336-.368-.336,7.285-6.673.735.674-6.917,6.335,6.917,6.335-.735.674Z" fill="#bb9c66"/>
  </g>
</svg>
