<svg xmlns="http://www.w3.org/2000/svg" width="22" height="25" viewBox="0 0 22 25">
  <g id="Сгруппировать_7" data-name="Сгруппировать 7" transform="translate(-525 -4775)">
    <g id="Rectangle_32" data-name="Rectangle 32" fill="none">
      <path d="M547,4800H525v-13l11,7,11-7v13Z" stroke="none"/>
      <path d="M 546.0000610351563 4799.00048828125 L 546.0000610351563 4788.82177734375 L 536.5372924804688 4794.84375 L 536.00048828125 4795.185546875 L 535.4635620117188 4794.84375 L 525.9996337890625 4788.82177734375 L 525.9996337890625 4799.00048828125 L 546.0000610351563 4799.00048828125 M 547.0000610351563 4800.00048828125 L 546.9990844726563 4800.00048828125 L 524.9996337890625 4800.00048828125 L 524.9996337890625 4787 L 536.0004272460938 4794 L 547.0000610351563 4787 L 547.0000610351563 4799.99951171875 L 547.0000610351563 4800.00048828125 Z" stroke="none" fill="#bb9c66"/>
    </g>
    <g id="Rectangle_33" data-name="Rectangle 33" fill="none">
      <path d="M529,4775h15v16l-7,4-8-4Z" stroke="none"/>
      <path d="M 530 4776 L 530 4790.3818359375 L 536.9686279296875 4793.8662109375 L 543 4790.41943359375 L 543 4776 L 530 4776 M 529 4775 L 544 4775 L 544 4791 L 537.0001220703125 4795 L 529 4791 L 529 4775 Z" stroke="none" fill="#bb9c66"/>
    </g>
    <g id="Shape_93" data-name="Shape 93" fill="none">
      <path d="M539,4788v-1h2v1Zm-7,0v-1h4v1Zm0-3v-1h7v1Zm0-2v-1h9v1Zm0-2v-1h7v1Zm0-2v-1h9v1Z" stroke="none"/>
      <path d="M 541.000244140625 4788.00048828125 L 538.99951171875 4788.00048828125 L 538.99951171875 4786.99951171875 L 541.000244140625 4786.99951171875 L 541.000244140625 4788.00048828125 Z M 536.000244140625 4788.00048828125 L 532.0000610351563 4788.00048828125 L 532.0000610351563 4786.99951171875 L 536.000244140625 4786.99951171875 L 536.000244140625 4788.00048828125 Z M 538.99951171875 4785 L 532.0000610351563 4785 L 532.0000610351563 4784 L 538.99951171875 4784 L 538.99951171875 4785 Z M 541.000244140625 4783.00048828125 L 532.0000610351563 4783.00048828125 L 532.0000610351563 4781.99951171875 L 541.000244140625 4781.99951171875 L 541.000244140625 4783.00048828125 Z M 538.99951171875 4780.99951171875 L 532.0000610351563 4780.99951171875 L 532.0000610351563 4780 L 538.99951171875 4780 L 538.99951171875 4780.99951171875 Z M 541.000244140625 4779 L 532.0000610351563 4779 L 532.0000610351563 4778.00048828125 L 541.000244140625 4778.00048828125 L 541.000244140625 4779 Z" stroke="none" fill="#bb9c66"/>
    </g>
    <g id="Shape_92" data-name="Shape 92" fill="none">
      <path d="M544,4785v-1l3,4v1Zm-19,2,4-4,.18,1.2L525,4789Z" stroke="none"/>
      <path d="M 528.9994506835938 4783.00048828125 L 529.1797485351563 4784.19873046875 L 524.9996337890625 4789.00048828125 L 524.9996337890625 4787.00048828125 L 528.9994506835938 4783.00048828125 Z M 544.0001831054688 4784.00048828125 L 547.0000610351563 4788.00048828125 L 547.0000610351563 4789.00048828125 L 544.0001831054688 4785.00048828125 L 544.0001831054688 4784.00048828125 Z" stroke="none" fill="#bb9c66"/>
    </g>
  </g>
</svg>
