<svg xmlns="http://www.w3.org/2000/svg" xmlns:xlink="http://www.w3.org/1999/xlink" width="85" height="72.2" viewBox="0 0 85 72.2">
  <defs>
    <clipPath id="clip-Монтажная_область_1">
      <rect width="85" height="72.2"/>
    </clipPath>
  </defs>
  <g id="Монтажная_область_1" data-name="Монтажная область – 1" clip-path="url(#clip-Монтажная_область_1)">
    <rect width="85" height="72.2" fill="#fff"/>
    <g id="pattern" transform="translate(-520 -2553.036)">
      <g id="Shape_83" data-name="Shape 83" transform="translate(523.86 2550.12)" fill="none">
        <path d="M36.55,75.049a2.19,2.19,0,1,1,2.19,2.19A2.19,2.19,0,0,1,36.55,75.049Zm5.234-2.7L57.089,57.033l-3.755-3.916.527-.507,3.745,3.9,14.25-14.262.519.518L58.115,57.046,71.4,70.9l-.526.507L57.6,57.563,42.3,72.872ZM19.7,57.492,6.367,71.4l-.529-.509L19.186,56.973,5.11,42.884l.517-.517L19.692,56.445l3.749-3.909.529.509-3.759,3.919,15.376,15.39-.517.518ZM20.47,38.62A18.27,18.27,0,1,1,38.74,56.84,18.245,18.245,0,0,1,20.47,38.62Zm52.63,0a2.19,2.19,0,1,1,2.19,2.19A2.19,2.19,0,0,1,73.1,38.62ZM0,38.62a2.19,2.19,0,1,1,2.19,2.19A2.19,2.19,0,0,1,0,38.62ZM56.523,20.808,53.615,23.58l-.5-.528,2.9-2.76L41.273,5.606l.515-.513,14.744,14.7L69.922,7.023l.506.527L57.049,20.306,72.375,35.583l-.515.514ZM4.859,35.446l15.251-15.2L7.051,7.79l.5-.525L20.626,19.729,35.56,4.842l.518.516L21.154,20.233l3.149,3-.5.525-3.161-3.014L5.376,35.961ZM36.55,2.19a2.19,2.19,0,1,1,2.19,2.19A2.189,2.189,0,0,1,36.55,2.19Z" stroke="none"/>
        <path d="M 38.7396240234375 76.23976898193359 C 39.39562225341797 76.23976898193359 39.92933654785156 75.70572662353516 39.92933654785156 75.04930114746094 C 39.92933654785156 74.39330291748047 39.39562225341797 73.85962677001953 38.7396240234375 73.85962677001953 C 38.08362197875977 73.85962677001953 37.54994583129883 74.39330291748047 37.54994583129883 75.04930114746094 C 37.54994583129883 75.70572662353516 38.08362197875977 76.23976898193359 38.7396240234375 76.23976898193359 M 38.7396240234375 55.8395881652832 C 43.35305023193359 55.8395881652832 47.69026565551758 54.04816055297852 50.95222854614258 50.79526519775391 C 54.21355056762695 47.54301452636719 56.00965881347656 43.21905136108398 56.00965881347656 38.619873046875 C 56.00965881347656 34.02062225341797 54.21355056762695 29.6965160369873 50.95219421386719 26.44408798217773 C 47.69019317626953 23.19098091125488 43.3530158996582 21.3994083404541 38.7396240234375 21.3994083404541 C 34.12622833251953 21.3994083404541 29.7890510559082 23.19098091125488 26.52705192565918 26.44408798217773 C 23.2657299041748 29.6965160369873 21.46962356567383 34.02062225341797 21.46962356567383 38.619873046875 C 21.46962356567383 43.21905136108398 23.2657299041748 47.54301452636719 26.52701568603516 50.79526519775391 C 29.78901481628418 54.04816055297852 34.12619400024414 55.8395881652832 38.7396240234375 55.8395881652832 M 75.28955078125 39.80958557128906 C 75.94601440429688 39.80958557128906 76.48008728027344 39.27587127685547 76.48008728027344 38.619873046875 C 76.48008728027344 37.96333694458008 75.94601440429688 37.42919540405273 75.28955078125 37.42919540405273 C 74.63355255126953 37.42919540405273 74.09983825683594 37.96333694458008 74.09983825683594 38.619873046875 C 74.09983825683594 39.27587127685547 74.63355255126953 39.80958557128906 75.28955078125 39.80958557128906 M 2.189694166183472 39.80958557128906 C 2.845694065093994 39.80958557128906 3.379408359527588 39.27587127685547 3.379408359527588 38.619873046875 C 3.379408359527588 37.96333694458008 2.845694065093994 37.42919540405273 2.189694166183472 37.42919540405273 C 1.53369414806366 37.42919540405273 1.000015497207642 37.96333694458008 1.000015497207642 38.619873046875 C 1.000015497207642 39.27587127685547 1.53369414806366 39.80958557128906 2.189694166183472 39.80958557128906 M 38.7396240234375 3.379408836364746 C 39.39562225341797 3.379408836364746 39.92933654785156 2.845694541931152 39.92933654785156 2.189694404602051 C 39.92933654785156 1.533694505691528 39.39562225341797 1.00001585483551 38.7396240234375 1.00001585483551 C 38.08362197875977 1.00001585483551 37.54994583129883 1.533694505691528 37.54994583129883 2.189694404602051 C 37.54994583129883 2.845694541931152 38.08362197875977 3.379408836364746 38.7396240234375 3.379408836364746 M 38.7396240234375 77.23976898193359 C 37.53001403808594 77.23976898193359 36.54994583129883 76.25880432128906 36.54994583129883 75.04930114746094 C 36.54994583129883 73.84058380126953 37.53001403808594 72.85962677001953 38.7396240234375 72.85962677001953 C 39.9492301940918 72.85962677001953 40.92933654785156 73.84058380126953 40.92933654785156 75.04930114746094 C 40.92933654785156 76.25880432128906 39.9492301940918 77.23976898193359 38.7396240234375 77.23976898193359 Z M 42.30273056030273 72.87208557128906 L 41.78344345092773 72.35279846191406 L 57.08948135375977 57.03344345092773 L 53.33405303955078 53.1179084777832 L 53.86144256591797 52.61133575439453 L 57.6064453125 56.5161247253418 L 71.85601806640625 42.25415802001953 L 72.37529754638672 42.77244567871094 L 58.11469268798828 57.0459098815918 L 71.3988037109375 70.89647674560547 L 70.87229919433594 71.40333557128906 L 57.5977668762207 57.56322860717773 L 42.30273056030273 72.87208557128906 Z M 35.0703010559082 72.87208557128906 L 19.7049446105957 57.4924430847168 L 6.367479801177979 71.39794158935547 L 5.838301181793213 70.88941192626953 L 19.18615913391113 56.97315979003906 L 5.110229969024658 42.88401412963867 L 5.626836776733398 42.36669540405273 L 19.69237327575684 56.4453010559082 L 23.44140815734863 52.53662490844727 L 23.97065925598145 53.04515838623047 L 20.21122932434082 56.9645881652832 L 35.58691024780273 72.35447692871094 L 35.0703010559082 72.87208557128906 Z M 38.7396240234375 56.8395881652832 C 28.64973068237305 56.8395881652832 20.46962356567383 48.6828727722168 20.46962356567383 38.619873046875 C 20.46962356567383 28.5568733215332 28.64973068237305 20.3994083404541 38.7396240234375 20.3994083404541 C 48.82951736450195 20.3994083404541 57.00965881347656 28.5568733215332 57.00965881347656 38.619873046875 C 57.00965881347656 48.6828727722168 48.82951736450195 56.8395881652832 38.7396240234375 56.8395881652832 Z M 75.28955078125 40.80958557128906 C 74.07991027832031 40.80958557128906 73.09983825683594 39.82958602905273 73.09983825683594 38.619873046875 C 73.09983825683594 37.41040802001953 74.07991027832031 36.42919540405273 75.28955078125 36.42919540405273 C 76.49916076660156 36.42919540405273 77.48008728027344 37.41040802001953 77.48008728027344 38.619873046875 C 77.48008728027344 39.82958602905273 76.49916076660156 40.80958557128906 75.28955078125 40.80958557128906 Z M 2.189694166183472 40.80958557128906 C 0.9800869822502136 40.80958557128906 1.55552461365005e-05 39.82958602905273 1.55552461365005e-05 38.619873046875 C 1.55552461365005e-05 37.41040802001953 0.9800869822502136 36.42919540405273 2.189694166183472 36.42919540405273 C 3.399301290512085 36.42919540405273 4.379408359527588 37.41040802001953 4.379408359527588 38.619873046875 C 4.379408359527588 39.82958602905273 3.399301290512085 40.80958557128906 2.189694166183472 40.80958557128906 Z M 71.86054992675781 36.09716033935547 L 56.52258682250977 20.8076229095459 L 53.61479949951172 23.58008766174316 L 53.10990905761719 23.05248069763184 L 56.00530242919922 20.2919807434082 L 41.27312088012695 5.606194496154785 L 41.78790664672852 5.093015670776367 L 56.53169250488281 19.79005241394043 L 69.92194366455078 7.02269458770752 L 70.42772674560547 7.549301624298096 L 57.04894256591797 20.3056583404541 L 72.37529754638672 35.58326721191406 L 71.86054992675781 36.09716033935547 Z M 5.375730037689209 35.9611930847168 L 4.859122753143311 35.44555282592773 L 20.11058616638184 20.24244499206543 L 7.050587177276611 7.789551734924316 L 7.553730010986328 7.264908790588379 L 20.62555122375488 19.7290153503418 L 35.55994415283203 4.84205150604248 L 36.07744598388672 5.357658863067627 L 21.15423011779785 20.23315811157227 L 24.30365753173828 23.23608779907227 L 23.80055046081543 23.7609806060791 L 20.63923072814941 20.7465877532959 L 5.375730037689209 35.9611930847168 Z M 38.7396240234375 4.379408836364746 C 37.53001403808594 4.379408836364746 36.54994583129883 3.39940881729126 36.54994583129883 2.189694404602051 C 36.54994583129883 0.9799801707267761 37.53001403808594 1.590401734574698e-05 38.7396240234375 1.590401734574698e-05 C 39.9492301940918 1.590401734574698e-05 40.92933654785156 0.9799801707267761 40.92933654785156 2.189694404602051 C 40.92933654785156 3.39940881729126 39.9492301940918 4.379408836364746 38.7396240234375 4.379408836364746 Z" stroke="none" fill="#bb9c66"/>
      </g>
      <g id="Shape_84" data-name="Shape 84" transform="translate(520 2547.036)" fill="#bb9c66">
        <path d="M 5.913398265838623 374.2854919433594 L 0.9060009121894836 369.1735534667969 L 5.913398265838623 364.060302734375 L 10.92145442962646 369.1735534667969 L 5.913398265838623 374.2854919433594 Z M 79.29205322265625 374.2854919433594 L 74.28469848632813 369.1735534667969 L 79.29205322265625 364.060302734375 L 84.30010223388672 369.1735534667969 L 79.29205322265625 374.2854919433594 Z M 78.78793334960938 301.6326904296875 L 73.81057739257813 296.671142578125 L 78.78793334960938 291.7095947265625 L 83.76615905761719 296.671142578125 L 78.78793334960938 301.6326904296875 Z M 5.686517715454102 301.6326904296875 L 0.7082903981208801 296.671142578125 L 5.686517715454102 291.7095947265625 L 10.66382503509521 296.671142578125 L 5.686517715454102 301.6326904296875 Z M 5.913398265838623 227.2839508056641 L 0.9059690833091736 222.1706695556641 L 5.913373947143555 217.0585021972656 L 10.92146110534668 222.1706848144531 L 5.913398265838623 227.2839508056641 Z M 79.29205322265625 227.2839508056641 L 74.28466796875 222.1706695556641 L 79.29202270507813 217.0585021972656 L 84.30010986328125 222.1706848144531 L 79.29205322265625 227.2839508056641 Z M 78.78793334960938 154.6309509277344 L 73.81055450439453 149.6694183349609 L 78.78793334960938 144.7071990966797 L 83.76618194580078 149.6694183349609 L 78.78793334960938 154.6309509277344 Z M 5.686517715454102 154.6309509277344 L 0.7082683444023132 149.6694183349609 L 5.686517238616943 144.7071990966797 L 10.66384696960449 149.6694183349609 L 5.686517715454102 154.6309509277344 Z M 5.913398265838623 83.28199768066406 L 0.9059690833091736 78.16870880126953 L 5.913373947143555 73.05654907226563 L 10.92146110534668 78.16873931884766 L 5.913398265838623 83.28199768066406 Z M 79.29205322265625 83.28199768066406 L 74.28466796875 78.16870880126953 L 79.29202270507813 73.05654907226563 L 84.30010986328125 78.16873931884766 L 79.29205322265625 83.28199768066406 Z M 78.78793334960938 10.62900447845459 L 73.81057739257813 5.667498588562012 L 78.78793334960938 0.7059484720230103 L 83.76615905761719 5.667498588562012 L 78.78793334960938 10.62900447845459 Z M 5.686517715454102 10.62900352478027 L 0.7082919478416443 5.667498588562012 L 5.686517715454102 0.7059500217437744 L 10.6638240814209 5.667498588562012 L 5.686517715454102 10.62900352478027 Z" stroke="none"/>
        <path d="M 79.29204559326172 373.5709838867188 L 83.60016632080078 369.1734924316406 L 79.29201507568359 364.7748718261719 L 74.98448944091797 369.1734619140625 L 79.29204559326172 373.5709838867188 M 5.913406372070313 373.5709838867188 L 10.22152137756348 369.1734924316406 L 5.913371562957764 364.7748718261719 L 1.605849146842957 369.1734619140625 L 5.913406372070313 373.5709838867188 M 78.78798675537109 300.9267272949219 L 83.05783843994141 296.671142578125 L 78.78798675537109 292.4155578613281 L 74.51882934570313 296.671142578125 L 78.78798675537109 300.9267272949219 M 5.686442375183105 300.9267272949219 L 9.955598831176758 296.671142578125 L 5.686442375183105 292.4155578613281 L 1.41658878326416 296.671142578125 L 5.686442375183105 300.9267272949219 M 79.29205322265625 226.5693664550781 L 83.60018157958984 222.1707153320313 L 79.29201507568359 217.7730102539063 L 74.98447418212891 222.1706848144531 L 79.29205322265625 226.5693664550781 M 5.913406848907471 226.5693664550781 L 10.22153854370117 222.1707153320313 L 5.913371562957764 217.7730102539063 L 1.605833053588867 222.1706848144531 L 5.913406848907471 226.5693664550781 M 78.78798675537109 153.9250183105469 L 83.05788421630859 149.6693878173828 L 78.78798675537109 145.4132232666016 L 74.51878356933594 149.6693878173828 L 78.78798675537109 153.9250183105469 M 5.686442375183105 153.9250183105469 L 9.955643653869629 149.6693878173828 L 5.686442375183105 145.4132232666016 L 1.416543841362 149.6693878173828 L 5.686442375183105 153.9250183105469 M 79.29201507568359 82.56741333007813 L 83.60017395019531 78.16878509521484 L 79.29201507568359 73.77108001708984 L 74.98444366455078 78.16878509521484 L 79.29201507568359 82.56741333007813 M 5.913371562957764 82.56741333007813 L 10.22153377532959 78.16878509521484 L 5.913371562957764 73.77108001708984 L 1.605801582336426 78.16878509521484 L 5.913371562957764 82.56741333007813 M 78.78798675537109 9.923087120056152 L 83.05783843994141 5.667500019073486 L 78.78798675537109 1.41191291809082 L 74.51882934570313 5.667500019073486 L 78.78798675537109 9.923087120056152 M 5.686442375183105 9.923087120056152 L 9.955598831176758 5.667500019073486 L 5.686442375183105 1.41191291809082 L 1.41658878326416 5.667500019073486 L 5.686442375183105 9.923087120056152 M 79.29199981689453 375 L 73.58478546142578 369.173583984375 L 79.29199981689453 363.345703125 L 85 369.173583984375 L 79.29199981689453 375 Z M 5.913357257843018 375 L 0.206142857670784 369.173583984375 L 5.913357257843018 363.345703125 L 11.62135696411133 369.173583984375 L 5.913357257843018 375 Z M 78.78792572021484 302.3386535644531 L 73.10235595703125 296.671142578125 L 78.78792572021484 291.0036315917969 L 84.47442626953125 296.671142578125 L 78.78792572021484 302.3386535644531 Z M 5.686500072479248 302.3386535644531 L 7.105427357601002e-15 296.671142578125 L 5.686500072479248 291.0036315917969 L 11.37207126617432 296.671142578125 L 5.686500072479248 302.3386535644531 Z M 79.29199981689453 227.9985656738281 L 73.58478546142578 222.1706390380859 L 79.29199981689453 216.343994140625 L 85 222.1706390380859 L 79.29199981689453 227.9985656738281 Z M 5.913357257843018 227.9985656738281 L 0.206142857670784 222.1706390380859 L 5.913357257843018 216.343994140625 L 11.62135696411133 222.1706390380859 L 5.913357257843018 227.9985656738281 Z M 78.78792572021484 155.3369293212891 L 73.10235595703125 149.66943359375 L 78.78792572021484 144.001220703125 L 84.47442626953125 149.66943359375 L 78.78792572021484 155.3369293212891 Z M 5.686500072479248 155.3369293212891 L 7.105427357601002e-15 149.66943359375 L 5.686500072479248 144.001220703125 L 11.37207126617432 149.66943359375 L 5.686500072479248 155.3369293212891 Z M 79.29199981689453 83.99657440185547 L 73.58478546142578 78.16871643066406 L 79.29199981689453 72.34207153320313 L 85 78.16871643066406 L 79.29199981689453 83.99657440185547 Z M 5.913357257843018 83.99657440185547 L 0.206142857670784 78.16871643066406 L 5.913357257843018 72.34207153320313 L 11.62135696411133 78.16871643066406 L 5.913357257843018 83.99657440185547 Z M 78.78792572021484 11.33500003814697 L 73.10235595703125 5.667500019073486 L 78.78792572021484 2.842170943040401e-14 L 84.47442626953125 5.667500019073486 L 78.78792572021484 11.33500003814697 Z M 5.686500072479248 11.33500003814697 L 7.105427357601002e-15 5.667500019073486 L 5.686500072479248 2.842170943040401e-14 L 11.37207126617432 5.667500019073486 L 5.686500072479248 11.33500003814697 Z" stroke="none" fill="#bb9c66"/>
      </g>
    </g>
  </g>
</svg>
