<svg xmlns="http://www.w3.org/2000/svg" width="20" height="21" viewBox="0 0 20 21">
  <g id="Сгруппировать_4" data-name="Сгруппировать 4" transform="translate(-990 -4214)">
    <g id="Ellipse_55" data-name="Ellipse 55" fill="none">
      <path d="M1000,4235a10,10,0,1,1,0-20v1a9,9,0,1,0,6.363,2.636l.707-.707A10,10,0,0,1,1000,4235Z" stroke="none"/>
      <path d="M 1000.000244140625 4235 C 994.4860229492188 4235 989.9999389648438 4230.51416015625 989.9999389648438 4225 C 989.9999389648438 4219.48583984375 994.4860229492188 4214.99951171875 1000.000244140625 4214.99951171875 L 1000.000244140625 4215.99951171875 C 995.0362548828125 4216.00048828125 991.0000610351563 4220.03759765625 991.0000610351563 4225 C 991.0000610351563 4229.96240234375 995.0375366210938 4234 1000.000244140625 4234 C 1004.962951660156 4234 1009.000427246094 4229.96240234375 1009.000427246094 4225 C 1009.000427246094 4222.59521484375 1008.063903808594 4220.3349609375 1006.363464355469 4218.6357421875 L 1007.070556640625 4217.9287109375 C 1008.959777832031 4219.81787109375 1009.999450683594 4222.3291015625 1009.999450683594 4225 C 1009.999450683594 4230.51416015625 1005.513854980469 4235 1000.000244140625 4235 Z" stroke="none" fill="#bb9c66"/>
    </g>
    <g id="Shape_87" data-name="Shape 87" fill="none">
      <path d="M999,4223v-8h-8v-1h9v9Z" stroke="none"/>
      <path d="M 999.9996337890625 4223 L 999.0001831054688 4223 L 999.0001831054688 4215.00048828125 L 990.99951171875 4215.00048828125 L 990.99951171875 4214 L 999.9996337890625 4214 L 999.9996337890625 4223 Z" stroke="none" fill="#bb9c66"/>
    </g>
  </g>
</svg>
