<svg xmlns="http://www.w3.org/2000/svg" xmlns:xlink="http://www.w3.org/1999/xlink" width="75" height="73.14" viewBox="0 0 75 73.14">
  <defs>
    <clipPath id="clip-path">
      <ellipse id="Ellipse_20" data-name="Ellipse 20" cx="37.5" cy="36.57" rx="37.5" ry="36.57" transform="translate(1313 1599)" fill="#1c242a" stroke="#707070" stroke-linejoin="round" stroke-width="3"/>
    </clipPath>
    <linearGradient id="linear-gradient" x1="0.5" y1="1" x2="0.5" gradientUnits="objectBoundingBox">
      <stop offset="0"/>
      <stop offset="0.5" stop-color="#9e9e9e"/>
      <stop offset="0.502" stop-color="#d0d0d0"/>
      <stop offset="1" stop-color="#9e9e9e"/>
    </linearGradient>
  </defs>
  <g id="icon3" transform="translate(-1313 -1599)">
    <g id="Ellipse_20-2" data-name="Ellipse 20">
      <g id="Ellipse_20-3" data-name="Ellipse 20" transform="translate(1313 1599)" fill="#1c242a" stroke="#707070" stroke-linejoin="round" stroke-width="3">
        <ellipse cx="37.5" cy="36.57" rx="37.5" ry="36.57" stroke="none"/>
        <ellipse cx="37.5" cy="36.57" rx="36" ry="35.07" fill="none"/>
      </g>
      <g id="Clip" clip-path="url(#clip-path)">
        <g id="Shape_36" data-name="Shape 36">
          <path id="Shape_36-2" data-name="Shape 36" d="M1368,1635.027a2.269,2.269,0,0,0-2.3-2.238h-1.07l-3-9.283-.031-.073a5.652,5.652,0,0,0-2.145-2.446,5.884,5.884,0,0,0-3.144-.987H1343.34a5.888,5.888,0,0,0-3.144.987,5.661,5.661,0,0,0-2.144,2.446l-.033.075-3,9.281h-.725a2.269,2.269,0,0,0-2.3,2.238v10.044h2.18v2.878a3.134,3.134,0,0,0,6.265,0v-2.878h19v2.878a3.134,3.134,0,0,0,6.265,0v-2.878H1368Zm-5.421,1.075a2.529,2.529,0,1,1-2.595,2.528A2.563,2.563,0,0,1,1362.579,1636.1Zm-21.216-11.4a2.333,2.333,0,0,1,.806-.836,2.309,2.309,0,0,1,1.171-.406h12.972a2.3,2.3,0,0,1,1.172.406,2.336,2.336,0,0,1,.808.836l2.61,8.084h-22.154Zm-4.05,16.453a2.529,2.529,0,1,1,2.595-2.528A2.564,2.564,0,0,1,1337.313,1641.158Z" fill="#bb9c66"/>
          <path id="Gradient_Overlay" data-name="Gradient Overlay" d="M1368,1635.027a2.269,2.269,0,0,0-2.3-2.238h-1.07l-3-9.283-.031-.073a5.652,5.652,0,0,0-2.145-2.446,5.884,5.884,0,0,0-3.144-.987H1343.34a5.888,5.888,0,0,0-3.144.987,5.661,5.661,0,0,0-2.144,2.446l-.033.075-3,9.281h-.725a2.269,2.269,0,0,0-2.3,2.238v10.044h2.18v2.878a3.134,3.134,0,0,0,6.265,0v-2.878h19v2.878a3.134,3.134,0,0,0,6.265,0v-2.878H1368Zm-5.421,1.075a2.529,2.529,0,1,1-2.595,2.528A2.563,2.563,0,0,1,1362.579,1636.1Zm-21.216-11.4a2.333,2.333,0,0,1,.806-.836,2.309,2.309,0,0,1,1.171-.406h12.972a2.3,2.3,0,0,1,1.172.406,2.336,2.336,0,0,1,.808.836l2.61,8.084h-22.154Zm-4.05,16.453a2.529,2.529,0,1,1,2.595-2.528A2.564,2.564,0,0,1,1337.313,1641.158Z" opacity="0.96" fill="url(#linear-gradient)" style="mix-blend-mode: soft-light;isolation: isolate"/>
        </g>
      </g>
    </g>
  </g>
</svg>
