<svg xmlns="http://www.w3.org/2000/svg" xmlns:xlink="http://www.w3.org/1999/xlink" width="75" height="73.14" viewBox="0 0 75 73.14">
  <defs>
    <clipPath id="clip-path">
      <ellipse id="Ellipse_20" data-name="Ellipse 20" cx="37.5" cy="36.57" rx="37.5" ry="36.57" transform="translate(612 1900)" fill="#1c242a" stroke="#707070" stroke-linejoin="round" stroke-width="3"/>
    </clipPath>
    <linearGradient id="linear-gradient" x1="0.5" y1="1" x2="0.5" gradientUnits="objectBoundingBox">
      <stop offset="0"/>
      <stop offset="0.5" stop-color="#9e9e9e"/>
      <stop offset="0.502" stop-color="#d0d0d0"/>
      <stop offset="1" stop-color="#9e9e9e"/>
    </linearGradient>
  </defs>
  <g id="icon4" transform="translate(-612 -1900)">
    <g id="Ellipse_20-2" data-name="Ellipse 20">
      <g id="Ellipse_20-3" data-name="Ellipse 20" transform="translate(612 1900)" fill="#1c242a" stroke="#707070" stroke-linejoin="round" stroke-width="3">
        <ellipse cx="37.5" cy="36.57" rx="37.5" ry="36.57" stroke="none"/>
        <ellipse cx="37.5" cy="36.57" rx="36" ry="35.07" fill="none"/>
      </g>
      <g id="Clip" clip-path="url(#clip-path)">
        <g id="Shape_37" data-name="Shape 37">
          <path id="Shape_37-2" data-name="Shape 37" d="M672.819,1942.784a38.851,38.851,0,0,1-6.849,2.236l-.136-22.225c-3.845-1.712-9.547-2.8-15.908-2.8s-12.067,1.083-15.912,2.8v22.223a38.9,38.9,0,0,1-6.831-2.235L625,1947.567c6.282,2.783,15.12,4.421,25,4.433,9.879-.012,18.725-1.65,25-4.433Z" fill="#bb9c66"/>
          <path id="Gradient_Overlay" data-name="Gradient Overlay" d="M672.819,1942.784a38.851,38.851,0,0,1-6.849,2.236l-.136-22.225c-3.845-1.712-9.547-2.8-15.908-2.8s-12.067,1.083-15.912,2.8v22.223a38.9,38.9,0,0,1-6.831-2.235L625,1947.567c6.282,2.783,15.12,4.421,25,4.433,9.879-.012,18.725-1.65,25-4.433Z" opacity="0.96" fill="url(#linear-gradient)" style="mix-blend-mode: soft-light;isolation: isolate"/>
        </g>
      </g>
    </g>
  </g>
</svg>
