<svg xmlns="http://www.w3.org/2000/svg" xmlns:xlink="http://www.w3.org/1999/xlink" width="75" height="73.14" viewBox="0 0 75 73.14">
  <defs>
    <clipPath id="clip-path">
      <ellipse id="Ellipse_20" data-name="Ellipse 20" cx="37.5" cy="36.57" rx="37.5" ry="36.57" transform="translate(1313 1900)" fill="#1c242a" stroke="#707070" stroke-linejoin="round" stroke-width="3"/>
    </clipPath>
    <linearGradient id="linear-gradient" x1="0.5" y1="1" x2="0.5" gradientUnits="objectBoundingBox">
      <stop offset="0"/>
      <stop offset="0.5" stop-color="#9e9e9e"/>
      <stop offset="0.502" stop-color="#d0d0d0"/>
      <stop offset="1" stop-color="#9e9e9e"/>
    </linearGradient>
  </defs>
  <g id="icon6" transform="translate(-1313 -1900)">
    <g id="Ellipse_20-2" data-name="Ellipse 20">
      <g id="Ellipse_20-3" data-name="Ellipse 20" transform="translate(1313 1900)" fill="#1c242a" stroke="#707070" stroke-linejoin="round" stroke-width="3">
        <ellipse cx="37.5" cy="36.57" rx="37.5" ry="36.57" stroke="none"/>
        <ellipse cx="37.5" cy="36.57" rx="36" ry="35.07" fill="none"/>
      </g>
      <g id="Clip" clip-path="url(#clip-path)">
        <g id="Shape_38" data-name="Shape 38">
          <path id="Shape_38-2" data-name="Shape 38" d="M1354.467,1947.748c-.074-.334-.127-.661-.165-.971h-8.687a8.887,8.887,0,0,1-.459,1.976,4.153,4.153,0,0,1-1.056,1.667,2.685,2.685,0,0,1-1.871.682v.777h15.458v-.777a2.683,2.683,0,0,1-1.872-.682A5.056,5.056,0,0,1,1354.467,1947.748Zm12.6-27.35h-34.213a1.033,1.033,0,0,0-1.032,1.033v22.482a1.033,1.033,0,0,0,1.032,1.033h34.213a1.033,1.033,0,0,0,1.033-1.033v-22.482A1.033,1.033,0,0,0,1367.065,1920.4Zm-1.473,22.042h-31.268V1922.9h31.268Z" fill="#bb9c66"/>
          <path id="Gradient_Overlay" data-name="Gradient Overlay" d="M1354.467,1947.748c-.074-.334-.127-.661-.165-.971h-8.687a8.887,8.887,0,0,1-.459,1.976,4.153,4.153,0,0,1-1.056,1.667,2.685,2.685,0,0,1-1.871.682v.777h15.458v-.777a2.683,2.683,0,0,1-1.872-.682A5.056,5.056,0,0,1,1354.467,1947.748Zm12.6-27.35h-34.213a1.033,1.033,0,0,0-1.032,1.033v22.482a1.033,1.033,0,0,0,1.032,1.033h34.213a1.033,1.033,0,0,0,1.033-1.033v-22.482A1.033,1.033,0,0,0,1367.065,1920.4Zm-1.473,22.042h-31.268V1922.9h31.268Z" opacity="0.96" fill="url(#linear-gradient)" style="mix-blend-mode: soft-light;isolation: isolate"/>
        </g>
      </g>
    </g>
  </g>
</svg>
