<svg xmlns="http://www.w3.org/2000/svg" xmlns:xlink="http://www.w3.org/1999/xlink" width="75" height="73.14" viewBox="0 0 75 73.14">
  <defs>
    <clipPath id="clip-path">
      <ellipse id="Ellipse_20" data-name="Ellipse 20" cx="37.5" cy="36.57" rx="37.5" ry="36.57" transform="translate(612 2199)" fill="#1c242a" stroke="#707070" stroke-linejoin="round" stroke-width="3"/>
    </clipPath>
    <linearGradient id="linear-gradient" x1="0.5" y1="1" x2="0.5" gradientUnits="objectBoundingBox">
      <stop offset="0"/>
      <stop offset="0.5" stop-color="#9e9e9e"/>
      <stop offset="0.502" stop-color="#d0d0d0"/>
      <stop offset="1" stop-color="#9e9e9e"/>
    </linearGradient>
  </defs>
  <g id="icon7" transform="translate(-612 -2199)">
    <g id="Ellipse_20-2" data-name="Ellipse 20">
      <g id="Ellipse_20-3" data-name="Ellipse 20" transform="translate(612 2199)" fill="#1c242a" stroke="#707070" stroke-linejoin="round" stroke-width="3">
        <ellipse cx="37.5" cy="36.57" rx="37.5" ry="36.57" stroke="none"/>
        <ellipse cx="37.5" cy="36.57" rx="36" ry="35.07" fill="none"/>
      </g>
      <g id="Clip" clip-path="url(#clip-path)">
        <g id="Shape_39" data-name="Shape 39">
          <path id="Shape_39-2" data-name="Shape 39" d="M668.743,2243.186l-16.6-10.383c-.063-.04-.129-.077-.194-.113v-.927a7.611,7.611,0,1,0-10.212-7.189h4.9a2.86,2.86,0,1,1,2.859,2.79,2.5,2.5,0,0,0-1.733.7,2.373,2.373,0,0,0-.718,1.692v2.934c-.066.036-.131.073-.194.113l-16.6,10.383a4.727,4.727,0,0,0-2.059,5.372,4.9,4.9,0,0,0,4.7,3.442h33.2a4.889,4.889,0,0,0,4.7-3.442A4.726,4.726,0,0,0,668.743,2243.186Zm-35.841,4.026,16.6-10.382,16.6,10.382Z" fill="#bb9c66"/>
          <path id="Gradient_Overlay" data-name="Gradient Overlay" d="M668.743,2243.186l-16.6-10.383c-.063-.04-.129-.077-.194-.113v-.927a7.611,7.611,0,1,0-10.212-7.189h4.9a2.86,2.86,0,1,1,2.859,2.79,2.5,2.5,0,0,0-1.733.7,2.373,2.373,0,0,0-.718,1.692v2.934c-.066.036-.131.073-.194.113l-16.6,10.383a4.727,4.727,0,0,0-2.059,5.372,4.9,4.9,0,0,0,4.7,3.442h33.2a4.889,4.889,0,0,0,4.7-3.442A4.726,4.726,0,0,0,668.743,2243.186Zm-35.841,4.026,16.6-10.382,16.6,10.382Z" opacity="0.96" fill="url(#linear-gradient)" style="mix-blend-mode: soft-light;isolation: isolate"/>
        </g>
      </g>
    </g>
  </g>
</svg>
