<svg xmlns="http://www.w3.org/2000/svg" xmlns:xlink="http://www.w3.org/1999/xlink" width="75" height="73.14" viewBox="0 0 75 73.14">
  <defs>
    <clipPath id="clip-path">
      <ellipse id="Ellipse_20" data-name="Ellipse 20" cx="37.5" cy="36.57" rx="37.5" ry="36.57" transform="translate(963 2199)" fill="#1c242a" stroke="#707070" stroke-linejoin="round" stroke-width="3"/>
    </clipPath>
    <linearGradient id="linear-gradient" x1="0.5" y1="1" x2="0.5" gradientUnits="objectBoundingBox">
      <stop offset="0"/>
      <stop offset="0.5" stop-color="#9e9e9e"/>
      <stop offset="0.502" stop-color="#d0d0d0"/>
      <stop offset="1" stop-color="#9e9e9e"/>
    </linearGradient>
  </defs>
  <g id="icon8" transform="translate(-963 -2199)">
    <g id="Ellipse_20-2" data-name="Ellipse 20">
      <g id="Ellipse_20-3" data-name="Ellipse 20" transform="translate(963 2199)" fill="#1c242a" stroke="#707070" stroke-linejoin="round" stroke-width="3">
        <ellipse cx="37.5" cy="36.57" rx="37.5" ry="36.57" stroke="none"/>
        <ellipse cx="37.5" cy="36.57" rx="36" ry="35.07" fill="none"/>
      </g>
      <g id="Clip" clip-path="url(#clip-path)">
        <g id="Shape_40" data-name="Shape 40">
          <path id="Shape_40-2" data-name="Shape 40" d="M1014.532,2247.24a2.982,2.982,0,0,1-.6-1.469v-19.543a2.272,2.272,0,0,1,.6-1.253s1.467-1.118,1.467-2.3a3.08,3.08,0,0,0-3.23-2.9,4.062,4.062,0,0,0-1.9.628c-.263.174-.756.692-1.066.692h-3.1c-.309,0-.57-.519-.836-.692a5.527,5.527,0,0,0-2.5-.86h-.246a1.246,1.246,0,0,1-.895-.346,3.153,3.153,0,0,0-4.938.01,1.286,1.286,0,0,1-.945.336h-.279a5.525,5.525,0,0,0-2.494.86,4.3,4.3,0,0,1-1.323.692h-2.065c-.307,0-.8-.519-1.066-.692a4.06,4.06,0,0,0-1.9-.628,3.08,3.08,0,0,0-3.23,2.9c0,1.187,1.467,2.3,1.467,2.3a2.272,2.272,0,0,1,.6,1.253V2246.8c0,.333-.344.244-.6.44,0,0-1.467,1.119-1.467,2.306a3.08,3.08,0,0,0,3.23,2.9,4.149,4.149,0,0,0,2.116-.809c.255-.192.537-.727.846-.727h2.065c.309,0,.738.538.987.734a5.631,5.631,0,0,0,2.83,1.157,3.465,3.465,0,0,0,.616-.042,1.331,1.331,0,0,1,.994.262,3.175,3.175,0,0,0,4.5.08,1.436,1.436,0,0,1,.939-.3h.257a5.63,5.63,0,0,0,2.83-1.157,4.814,4.814,0,0,1,1.534-.734h2.065c.309,0,.592.535.844.727a4.163,4.163,0,0,0,2.119.809,3.079,3.079,0,0,0,3.23-2.9C1016,2248.359,1014.532,2247.24,1014.532,2247.24Zm-4.725-.44H990.194v-21.6h19.613Z" fill="#bb9c66"/>
          <path id="Gradient_Overlay" data-name="Gradient Overlay" d="M1014.532,2247.24a2.982,2.982,0,0,1-.6-1.469v-19.543a2.272,2.272,0,0,1,.6-1.253s1.467-1.118,1.467-2.3a3.08,3.08,0,0,0-3.23-2.9,4.062,4.062,0,0,0-1.9.628c-.263.174-.756.692-1.066.692h-3.1c-.309,0-.57-.519-.836-.692a5.527,5.527,0,0,0-2.5-.86h-.246a1.246,1.246,0,0,1-.895-.346,3.153,3.153,0,0,0-4.938.01,1.286,1.286,0,0,1-.945.336h-.279a5.525,5.525,0,0,0-2.494.86,4.3,4.3,0,0,1-1.323.692h-2.065c-.307,0-.8-.519-1.066-.692a4.06,4.06,0,0,0-1.9-.628,3.08,3.08,0,0,0-3.23,2.9c0,1.187,1.467,2.3,1.467,2.3a2.272,2.272,0,0,1,.6,1.253V2246.8c0,.333-.344.244-.6.44,0,0-1.467,1.119-1.467,2.306a3.08,3.08,0,0,0,3.23,2.9,4.149,4.149,0,0,0,2.116-.809c.255-.192.537-.727.846-.727h2.065c.309,0,.738.538.987.734a5.631,5.631,0,0,0,2.83,1.157,3.465,3.465,0,0,0,.616-.042,1.331,1.331,0,0,1,.994.262,3.175,3.175,0,0,0,4.5.08,1.436,1.436,0,0,1,.939-.3h.257a5.63,5.63,0,0,0,2.83-1.157,4.814,4.814,0,0,1,1.534-.734h2.065c.309,0,.592.535.844.727a4.163,4.163,0,0,0,2.119.809,3.079,3.079,0,0,0,3.23-2.9C1016,2248.359,1014.532,2247.24,1014.532,2247.24Zm-4.725-.44H990.194v-21.6h19.613Z" opacity="0.96" fill="url(#linear-gradient)" style="mix-blend-mode: soft-light;isolation: isolate"/>
        </g>
      </g>
    </g>
  </g>
</svg>
