<svg xmlns="http://www.w3.org/2000/svg" xmlns:xlink="http://www.w3.org/1999/xlink" width="75" height="73.14" viewBox="0 0 75 73.14">
  <defs>
    <clipPath id="clip-path">
      <ellipse id="Ellipse_20" data-name="Ellipse 20" cx="37.5" cy="36.57" rx="37.5" ry="36.57" transform="translate(1313 2199)" fill="#1c242a" stroke="#707070" stroke-linejoin="round" stroke-width="3"/>
    </clipPath>
    <linearGradient id="linear-gradient" x1="0.5" y1="1" x2="0.5" gradientUnits="objectBoundingBox">
      <stop offset="0"/>
      <stop offset="0.5" stop-color="#9e9e9e"/>
      <stop offset="0.502" stop-color="#d0d0d0"/>
      <stop offset="1" stop-color="#9e9e9e"/>
    </linearGradient>
  </defs>
  <g id="icon9" transform="translate(-1313 -2199)">
    <g id="Ellipse_20-2" data-name="Ellipse 20">
      <g id="Ellipse_20-3" data-name="Ellipse 20" transform="translate(1313 2199)" fill="#1c242a" stroke="#707070" stroke-linejoin="round" stroke-width="3">
        <ellipse cx="37.5" cy="36.57" rx="37.5" ry="36.57" stroke="none"/>
        <ellipse cx="37.5" cy="36.57" rx="36" ry="35.07" fill="none"/>
      </g>
      <g id="Clip" clip-path="url(#clip-path)">
        <g id="Shape_41" data-name="Shape 41">
          <path id="Shape_41-2" data-name="Shape 41" d="M1351.062,2246.528v-9.739a9.21,9.21,0,0,0,7.938-9.231,14.11,14.11,0,0,0-1.093-5.487l-.564-1.071h-14.685l-.566,1.071a14.149,14.149,0,0,0-1.091,5.487,9.2,9.2,0,0,0,8.072,9.248v9.721c-3.642.115-6.451.845-6.451,1.729,0,.963,3.335,1.744,7.447,1.744s7.443-.781,7.443-1.744C1357.511,2247.373,1354.7,2246.642,1351.062,2246.528Z" fill="#bb9c66"/>
          <path id="Gradient_Overlay" data-name="Gradient Overlay" d="M1351.062,2246.528v-9.739a9.21,9.21,0,0,0,7.938-9.231,14.11,14.11,0,0,0-1.093-5.487l-.564-1.071h-14.685l-.566,1.071a14.149,14.149,0,0,0-1.091,5.487,9.2,9.2,0,0,0,8.072,9.248v9.721c-3.642.115-6.451.845-6.451,1.729,0,.963,3.335,1.744,7.447,1.744s7.443-.781,7.443-1.744C1357.511,2247.373,1354.7,2246.642,1351.062,2246.528Z" opacity="0.96" fill="url(#linear-gradient)" style="mix-blend-mode: soft-light;isolation: isolate"/>
        </g>
      </g>
    </g>
  </g>
</svg>
